<svg width="599" height="500" viewBox="0 0 599 500" fill="none" xmlns="http://www.w3.org/2000/svg">
<path d="M411.461 496.086C383.293 500.182 360.075 476.525 360.075 448.061V448.061C360.075 420.7 381.906 399.545 408.195 391.961C417.453 389.29 425.418 385.94 432.088 381.912C448.388 372.075 459.838 356.125 466.45 334.05C469.5 323.848 471.848 311.618 473.491 297.358C477.168 265.458 450.331 239.312 418.219 239.312V239.312C386.107 239.312 360.075 213.28 360.075 181.168V84.9996C360.075 38.0554 398.131 -0.000371933 445.075 -0.000371933H513.588C560.532 -0.000371933 598.588 38.0554 598.588 84.9996L598.588 227.512C598.588 321.487 578.438 390.325 538.138 434.037C507.157 467.63 464.934 488.311 411.461 496.086ZM51.3955 496.198C23.2093 500.167 1.14441e-05 476.525 1.14441e-05 448.061V448.061C1.14441e-05 420.7 21.7965 399.491 48.1606 392.173C57.3986 389.608 65.349 386.405 72.0125 382.562C88.3125 373.175 100.1 357.212 107.363 334.7C110.658 324.488 113.208 312.362 115.009 298.321C119.165 265.929 91.7885 239.312 59.1313 239.312V239.312C26.474 239.312 1.14441e-05 212.838 1.14441e-05 180.181L1.14441e-05 84.9996C1.14441e-05 38.0554 38.0558 -0.000371933 85 -0.000371933H154.825C201.769 -0.000371933 239.825 38.0554 239.825 84.9996V227.512C239.825 321.487 219.787 390.325 179.712 434.037C148.756 467.792 105.986 488.511 51.3955 496.198Z" fill="white"/>
</svg>
