<svg width="599" height="500" viewBox="0 0 599 500" fill="none" xmlns="http://www.w3.org/2000/svg">
<path d="M187.126 3.51316C215.294 -0.582581 238.513 23.0748 238.513 51.5391V51.5391C238.513 78.9 216.681 100.055 190.392 107.639C181.134 110.31 173.169 113.659 166.5 117.688C150.2 127.525 138.75 143.475 132.138 165.55C129.088 175.751 126.74 187.981 125.096 202.241C121.42 234.142 148.257 260.288 180.369 260.288V260.288C212.481 260.288 238.513 286.319 238.513 318.431V414.6C238.513 461.544 200.457 499.6 153.513 499.6H84.9999C38.0557 499.6 0 461.544 0 414.6V272.087C0 178.112 20.15 109.275 60.45 65.5625C91.4301 31.9695 133.654 11.2883 187.126 3.51316ZM547.192 3.40139C575.378 -0.567754 598.588 23.0748 598.588 51.5391V51.5391C598.588 78.9 576.791 100.109 550.427 107.427C541.189 109.991 533.239 113.195 526.575 117.038C510.275 126.425 498.488 142.387 491.225 164.9C487.929 175.111 485.38 187.238 483.578 201.278C479.422 233.67 506.799 260.288 539.456 260.288V260.288C572.114 260.288 598.588 286.761 598.588 319.419V414.6C598.588 461.544 560.532 499.6 513.588 499.6H443.762C396.818 499.6 358.763 461.544 358.763 414.6V272.087C358.763 178.112 378.8 109.275 418.875 65.5625C449.831 31.8072 492.601 11.0888 547.192 3.40139Z" fill="white"/>
</svg>
