<svg width="1570" height="789" viewBox="0 0 1570 789" fill="none" xmlns="http://www.w3.org/2000/svg">
<mask id="path-1-inside-1_103_44" fill="white">
<path fill-rule="evenodd" clip-rule="evenodd" d="M0 60.2433C0 27.1062 26.8629 0.243256 60 0.243256H453.964C483.262 0.243256 507.013 23.9945 507.013 53.2931C507.013 82.5917 530.765 106.343 560.063 106.343H1331.68C1364.82 106.343 1391.68 133.206 1391.68 166.343V441.805C1391.68 474.942 1418.54 501.805 1451.68 501.805H1509.66C1542.79 501.805 1569.66 528.668 1569.66 561.805V728.757C1569.66 761.894 1542.79 788.757 1509.66 788.757H1122.64C1089.51 788.757 1062.64 761.894 1062.64 728.757V700.458C1062.64 667.321 1035.78 640.458 1002.64 640.458H244.053C210.916 640.458 184.053 613.595 184.053 580.458V347.195C184.053 314.058 157.19 287.195 124.053 287.195H60C26.8629 287.195 0 260.332 0 227.195V60.2433Z"/>
</mask>
<path fill-rule="evenodd" clip-rule="evenodd" d="M0 60.2433C0 27.1062 26.8629 0.243256 60 0.243256H453.964C483.262 0.243256 507.013 23.9945 507.013 53.2931C507.013 82.5917 530.765 106.343 560.063 106.343H1331.68C1364.82 106.343 1391.68 133.206 1391.68 166.343V441.805C1391.68 474.942 1418.54 501.805 1451.68 501.805H1509.66C1542.79 501.805 1569.66 528.668 1569.66 561.805V728.757C1569.66 761.894 1542.79 788.757 1509.66 788.757H1122.64C1089.51 788.757 1062.64 761.894 1062.64 728.757V700.458C1062.64 667.321 1035.78 640.458 1002.64 640.458H244.053C210.916 640.458 184.053 613.595 184.053 580.458V347.195C184.053 314.058 157.19 287.195 124.053 287.195H60C26.8629 287.195 0 260.332 0 227.195V60.2433Z" fill="white"/>
<path d="M453.964 -0.756744H60V1.24326H453.964V-0.756744ZM1331.68 105.343H560.063V107.343H1331.68V105.343ZM1392.68 441.805V166.343H1390.68V441.805H1392.68ZM1451.68 502.805H1509.66V500.805H1451.68V502.805ZM1568.66 561.805V728.757H1570.66V561.805H1568.66ZM1509.66 787.757H1122.64V789.757H1509.66V787.757ZM1063.64 728.757V700.458H1061.64V728.757H1063.64ZM244.053 641.458H1002.64V639.458H244.053V641.458ZM183.053 347.195V580.458H185.053V347.195H183.053ZM60 288.195H124.053V286.195H60V288.195ZM-1 60.2433V227.195H1V60.2433H-1ZM60 286.195C27.4152 286.195 1 259.779 1 227.195H-1C-1 260.884 26.3106 288.195 60 288.195V286.195ZM185.053 347.195C185.053 313.505 157.742 286.195 124.053 286.195V288.195C156.638 288.195 183.053 314.61 183.053 347.195H185.053ZM244.053 639.458C211.468 639.458 185.053 613.043 185.053 580.458H183.053C183.053 614.148 210.363 641.458 244.053 641.458V639.458ZM1063.64 700.458C1063.64 666.769 1036.33 639.458 1002.64 639.458V641.458C1035.23 641.458 1061.64 667.874 1061.64 700.458H1063.64ZM1122.64 787.757C1090.06 787.757 1063.64 761.341 1063.64 728.757H1061.64C1061.64 762.446 1088.95 789.757 1122.64 789.757V787.757ZM1568.66 728.757C1568.66 761.341 1542.24 787.757 1509.66 787.757V789.757C1543.35 789.757 1570.66 762.446 1570.66 728.757H1568.66ZM1509.66 502.805C1542.24 502.805 1568.66 529.221 1568.66 561.805H1570.66C1570.66 528.116 1543.35 500.805 1509.66 500.805V502.805ZM1390.68 441.805C1390.68 475.495 1417.99 502.805 1451.68 502.805V500.805C1419.1 500.805 1392.68 474.39 1392.68 441.805H1390.68ZM1331.68 107.343C1364.27 107.343 1390.68 133.758 1390.68 166.343H1392.68C1392.68 132.653 1365.37 105.343 1331.68 105.343V107.343ZM506.013 53.2931C506.013 83.144 530.212 107.343 560.063 107.343V105.343C531.317 105.343 508.013 82.0394 508.013 53.2931H506.013ZM60 -0.756744C26.3106 -0.756744 -1 26.5539 -1 60.2433H1C1 27.6585 27.4152 1.24326 60 1.24326V-0.756744ZM453.964 1.24326C482.71 1.24326 506.013 24.5468 506.013 53.2931H508.013C508.013 23.4422 483.814 -0.756744 453.964 -0.756744V1.24326Z" fill="white" mask="url(#path-1-inside-1_103_44)"/>
</svg>
